<svg width="300" height="42" viewBox="0 0 300 42" fill="none" xmlns="http://www.w3.org/2000/svg">
<!-- O -->
<path d="M18 30H6V18H18V30Z" fill="#CFCECD"/>
<path d="M18 12H6V30H18V12ZM24 36H0V6H24V36Z" fill="#656363"/>
<!-- P -->
<path d="M48 30H36V18H48V30Z" fill="#CFCECD"/>
<path d="M36 30H48V12H36V30ZM54 36H36V42H30V6H54V36Z" fill="#656363"/>
<!-- E -->
<path d="M84 24V30H66V24H84Z" fill="#CFCECD"/>
<path d="M84 24H66V30H84V36H60V6H84V24ZM66 18H78V12H66V18Z" fill="#656363"/>
<!-- N -->
<path d="M108 36H96V18H108V36Z" fill="#CFCECD"/>
<path d="M108 12H96V36H90V6H108V12ZM114 36H108V12H114V36Z" fill="#656363"/>
<!-- S -->
<path d="M144 24V30H126V24H144Z" fill="#CFCECD"/>
<path d="M138 12H126V18H138V12ZM144 24H126V30H144V36H120V24H138V18H120V6H144V12ZM138 30H126V36H138V30Z" fill="#d92626"/>
<!-- P -->
<path d="M168 30H156V18H168V30Z" fill="#CFCECD"/>
<path d="M156 30H168V12H156V30ZM174 36H156V42H150V6H174V36Z" fill="#d92626"/>
<!-- L -->
<path d="M198 30V36H186V30H198Z" fill="#CFCECD"/>
<path d="M180 6H186V30H198V36H180V6Z" fill="#d92626"/>
<!-- O -->
<path d="M228 30H216V18H228V30Z" fill="#CFCECD"/>
<path d="M228 12H216V30H228V12ZM234 36H210V6H234V36Z" fill="#d92626"/>
<!-- I -->
<path d="M258 36H252V12H258V36Z" fill="#CFCECD"/>
<path d="M264 6H246V12H252V36H258V12H264V6Z" fill="#d92626"/>
<!-- T -->
<path d="M288 36H282V12H288V36Z" fill="#CFCECD"/>
<path d="M294 6H270V12H282V36H288V12H294V6Z" fill="#d92626"/>
</svg>
